<svg width="38" height="38" fill="none" xmlns="http://www.w3.org/2000/svg"><g clip-path="url(#clip0_7_1440)" fill="#F2F2F2"><path d="M19 0C11.889 0 6.104 5.785 6.104 12.896c0 2.858 1.682 7.204 5.294 13.677a146.93 146.93 0 005.022 8.305l1.773 2.688a.966.966 0 001.614 0l1.773-2.688c.102-.155 2.538-3.854 5.022-8.305 3.612-6.473 5.294-10.819 5.294-13.677C31.896 5.786 26.111 0 19 0zm5.914 25.631a143.186 143.186 0 01-4.947 8.182L19 35.28l-.966-1.465a144.755 144.755 0 01-4.948-8.183c-3.351-6.004-5.05-10.289-5.05-12.735C8.036 6.851 12.954 1.933 19 1.933S29.964 6.85 29.964 12.896c0 2.446-1.699 6.731-5.05 12.735z"/><path d="M19 5.665c-3.943 0-7.15 3.208-7.15 7.15 0 3.944 3.207 7.151 7.15 7.151a7.157 7.157 0 007.15-7.15A7.157 7.157 0 0019 5.666zm0 12.369a5.224 5.224 0 01-5.218-5.218A5.224 5.224 0 0119 7.598a5.224 5.224 0 015.218 5.218A5.224 5.224 0 0119 18.034z"/></g><defs><clipPath id="clip0_7_1440"><path fill="#fff" d="M0 0h38v38H0z"/></clipPath></defs></svg>