<svg width="32" height="30" viewBox="0 0 32 30" fill="none" xmlns="http://www.w3.org/2000/svg">
<path d="M12.6361 9.25997L12.4318 9.34416C12.0879 8.74334 11.4409 8.33734 10.7005 8.33734H7.53684C6.43741 8.33734 5.54297 9.23178 5.54297 10.3312V19.3292C5.54297 20.4286 6.43747 21.323 7.53684 21.323H10.7005C11.3268 21.323 11.8864 21.0324 12.2522 20.5792C13.3531 21.067 14.5554 21.323 15.76 21.323H22.4448C23.5659 21.323 24.478 20.4109 24.478 19.2898C24.478 18.939 24.3887 18.6088 24.2317 18.3204C24.9305 17.9983 25.4169 17.2917 25.4169 16.4732C25.4169 16.1367 25.3343 15.8194 25.189 15.5396C25.9316 15.2364 26.4564 14.5068 26.4564 13.6565C26.4564 12.8063 25.9316 12.0767 25.189 11.7735C25.3343 11.4937 25.4169 11.1764 25.4169 10.84C25.4169 9.71884 24.5048 8.80666 23.3837 8.80666H20.053C19.7382 8.80666 19.482 8.55053 19.482 8.23572V6.39716C19.482 4.56416 17.9908 3.07291 16.1578 3.07291C15.354 3.07291 14.7001 3.72684 14.7001 4.53059V6.17734C14.7 7.53347 13.8899 8.74347 12.6361 9.25997ZM10.7004 20.073H7.53678C7.12659 20.073 6.79291 19.7393 6.79291 19.3292V10.3312C6.79291 9.92109 7.12659 9.58734 7.53678 9.58734H10.7004C11.1106 9.58734 11.4443 9.92109 11.4443 10.3312V19.3292C11.4443 19.7393 11.1106 20.073 10.7004 20.073ZM15.95 6.17747V4.53072C15.95 4.41622 16.0432 4.32303 16.1577 4.32303C17.3015 4.32303 18.232 5.25353 18.232 6.39728V8.23584C18.232 9.23991 19.0488 10.0568 20.0529 10.0568H23.3836C23.8155 10.0568 24.1668 10.4082 24.1668 10.8401C24.1668 11.272 23.8155 11.6233 23.3836 11.6233H19.4828C19.1377 11.6233 18.8578 11.9032 18.8578 12.2483C18.8578 12.5935 19.1377 12.8733 19.4828 12.8733H24.423C24.855 12.8733 25.2063 13.2247 25.2063 13.6566C25.2063 14.0885 24.855 14.4399 24.423 14.4399H19.4828C19.1377 14.4399 18.8578 14.7197 18.8578 15.0649C18.8578 15.41 19.1377 15.6899 19.4828 15.6899H23.3836C23.8155 15.6899 24.1668 16.0413 24.1668 16.4732C24.1668 16.905 23.8155 17.2564 23.3836 17.2564H19.4828C19.1377 17.2564 18.8578 17.5363 18.8578 17.8814C18.8578 18.2265 19.1377 18.5064 19.4828 18.5064H22.4448C22.8767 18.5064 23.228 18.8578 23.228 19.2897C23.228 19.7216 22.8767 20.073 22.4448 20.073H15.7599C14.7049 20.073 13.6522 19.8428 12.6923 19.4059C12.6933 19.3804 12.6943 19.3548 12.6943 19.3291V10.5878L13.1122 10.4157C14.8361 9.70553 15.95 8.04197 15.95 6.17747Z" fill="#FF9846"/>
<path d="M26.375 0.25H18.8125C18.4674 0.25 18.1875 0.529875 18.1875 0.875C18.1875 1.22012 18.4674 1.5 18.8125 1.5H26.375C28.7874 1.5 30.75 3.46263 30.75 5.875V20.375C30.75 22.7874 28.7874 24.75 26.375 24.75H18.1651C17.9418 24.75 17.7354 24.8691 17.6238 25.0625L16 27.875L14.3762 25.0625C14.2646 24.8691 14.0582 24.75 13.8349 24.75H5.625C3.21263 24.75 1.25 22.7874 1.25 20.375V5.875C1.25 3.46263 3.21263 1.5 5.625 1.5H13.1874C13.5326 1.5 13.8124 1.22012 13.8124 0.875C13.8124 0.529875 13.5326 0.25 13.1874 0.25H5.625C2.52338 0.25 0 2.77338 0 5.875V20.375C0 23.4766 2.52338 26 5.625 26H13.4741L15.4587 29.4375C15.5703 29.6309 15.7766 29.75 15.9999 29.75C16.2232 29.75 16.4296 29.6309 16.5412 29.4375L18.5258 26H26.375C29.4766 26 32 23.4766 32 20.375V5.875C32 2.77338 29.4766 0.25 26.375 0.25Z" fill="#FF9846"/>
<path d="M16 1.5C16.1644 1.5 16.325 1.43313 16.4418 1.31681C16.5581 1.20063 16.625 1.03938 16.625 0.875C16.625 0.710625 16.5581 0.549375 16.4418 0.433125C16.3256 0.316813 16.1644 0.25 16 0.25C15.8356 0.25 15.6744 0.316813 15.5581 0.433125C15.4419 0.549375 15.375 0.710625 15.375 0.875C15.375 1.03938 15.4419 1.20063 15.5581 1.31681C15.6744 1.43313 15.8356 1.5 16 1.5Z" fill="#FF9846"/>
</svg>
